<?xml version="1.0" standalone="no"?>
<!DOCTYPE svg PUBLIC "-//W3C//DTD SVG 20010904//EN"
 "http://www.w3.org/TR/2001/REC-SVG-20010904/DTD/svg10.dtd">
<svg version="1.0" xmlns="http://www.w3.org/2000/svg"
 width="512.000000pt" height="512.000000pt" viewBox="0 0 512.000000 512.000000"
 preserveAspectRatio="xMidYMid meet">
<metadata>
Created by potrace 1.16, written by Peter Selinger 2001-2019
</metadata>
<g transform="translate(0.000000,512.000000) scale(0.100000,-0.100000)"
fill="#000000" stroke="none">
<path d="M590 5111 c-73 -22 -141 -83 -182 -161 l-23 -45 0 -2345 0 -2345 23
-45 c30 -57 86 -116 137 -143 l40 -22 1121 -3 1122 -2 63 32 c73 38 130 104
151 177 19 68 19 4634 0 4702 -21 72 -78 139 -151 176 l-63 33 -1106 -1 c-609
0 -1118 -4 -1132 -8z m2228 -171 c18 -11 41 -34 52 -52 20 -33 20 -56 20
-2328 0 -2272 0 -2295 -20 -2328 -11 -18 -34 -41 -52 -52 -32 -20 -53 -20
-1098 -20 -1190 0 -1111 -5 -1155 70 -20 35 -20 40 -20 2330 0 2290 0 2295 20
2330 44 75 -35 70 1155 70 1045 0 1066 0 1098 -20z"/>
<path d="M893 4713 c-36 -7 -71 -51 -78 -96 -4 -23 -5 -163 -3 -312 3 -290 5
-299 57 -327 19 -10 190 -13 863 -13 l840 0 29 33 29 32 0 308 c0 268 -2 311
-16 331 -37 52 -22 51 -891 50 -444 -1 -818 -4 -830 -6z m1627 -603 l0 -30
-150 0 -150 0 0 30 0 30 150 0 150 0 0 -30z"/>
<path d="M857 3630 c-15 -12 -31 -38 -37 -58 -13 -49 -13 -545 1 -595 7 -26
21 -44 42 -57 31 -19 58 -20 855 -20 898 0 874 -1 901 56 7 17 11 123 11 329
l0 303 -31 31 -31 31 -842 0 c-834 0 -844 0 -869 -20z m1633 -620 l0 -30 -150
0 -150 0 0 30 0 30 150 0 150 0 0 -30z"/>
<path d="M820 2365 l0 -85 905 0 905 0 0 85 0 85 -905 0 -905 0 0 -85z"/>
<path d="M820 1955 l0 -85 905 0 905 0 0 85 0 85 -905 0 -905 0 0 -85z"/>
<path d="M810 1565 l0 -85 910 0 910 0 0 85 0 85 -910 0 -910 0 0 -85z"/>
<path d="M1630 1099 c-56 -17 -133 -75 -167 -126 -40 -62 -55 -111 -55 -183 0
-72 15 -121 54 -180 40 -59 77 -88 151 -118 115 -46 251 -18 340 71 123 123
123 331 0 454 -60 60 -124 87 -213 90 -41 1 -91 -3 -110 -8z m187 -185 c88
-67 84 -188 -8 -256 -60 -45 -164 -23 -213 45 -31 42 -29 131 3 176 51 71 150
87 218 35z"/>
<path d="M3014 5061 c22 -23 46 -61 56 -92 l18 -52 813 -297 c793 -289 814
-296 817 -273 4 31 -27 91 -59 115 -19 15 -1659 637 -1679 638 -2 0 13 -18 34
-39z"/>
<path d="M3090 2520 c0 -1265 2 -2300 4 -2300 2 0 372 206 822 458 l819 459 0
1553 0 1554 -815 287 c-448 159 -818 288 -822 289 -5 0 -8 -1035 -8 -2300z"/>
</g>
</svg>
